<svg xmlns="http://www.w3.org/2000/svg" viewBox="0 0 512 512" fill="none">
  <rect width="512" height="512" fill="none"/>
  <g stroke="#dff6ff" stroke-width="10" stroke-linecap="round" stroke-linejoin="round">
    <path d="M122 94 L180 52 H332 L390 94 L372 292 L308 382 H204 L140 292 Z"/>
    <path d="M190 66 L204 26 H308 L322 66"/>
    <path d="M214 90 H298 L290 150 H222 Z"/>
    <path d="M168 212 L220 196 L208 226 L154 238 Z"/>
    <path d="M344 212 L292 196 L304 226 L358 238 Z"/>
    <path d="M150 244 L126 162 L102 188 L122 282"/>
    <path d="M362 244 L386 162 L410 188 L390 282"/>
    <path d="M222 386 L206 416 H306 L290 386"/>
    <path d="M178 338 L228 304 H284 L334 338"/>
    <path d="M256 304 V416"/>
  </g>
  <g stroke="#9ee8ff" stroke-width="16" stroke-linecap="round" stroke-linejoin="round">
    <path d="M178 220 L232 210"/>
    <path d="M334 220 L280 210"/>
  </g>
</svg>
